<?xml version="1.0" standalone="no"?>
<!DOCTYPE svg PUBLIC "-//W3C//DTD SVG 20010904//EN"
 "http://www.w3.org/TR/2001/REC-SVG-20010904/DTD/svg10.dtd">
<svg version="1.0" xmlns="http://www.w3.org/2000/svg"
 width="1558.000000pt" height="652.000000pt" viewBox="0 0 1558.000000 652.000000"
 preserveAspectRatio="xMidYMid meet">

<g transform="translate(0.000000,652.000000) scale(0.100000,-0.100000)"
fill="#000000" stroke="none">
<path d="M0 3260 l0 -3260 7790 0 7790 0 0 3260 0 3260 -5512 -1 c-4570 -2
-5481 -4 -5328 -15 220 -15 1005 -72 1430 -105 74 -5 236 -16 359 -24 136 -9
229 -19 238 -26 8 -7 13 -24 11 -38 -3 -24 -8 -26 -53 -29 -57 -4 -302 10
-675 38 -140 11 -354 27 -475 35 -649 43 -1265 93 -1294 105 -18 8 -22 16 -18
35 l4 25 -2133 0 -2134 0 0 -3260z m2195 3136 c61 -8 227 -31 369 -50 272 -37
294 -44 281 -86 -7 -22 -10 -23 -89 -16 -76 6 -359 44 -749 100 -93 14 -175
30 -183 37 -15 12 -10 48 8 60 4 3 63 -2 131 -12 67 -10 172 -24 232 -33z
m393 -209 c25 -19 10 -35 -55 -62 -38 -15 -87 -36 -110 -47 -132 -57 -399
-158 -422 -158 -32 0 -80 30 -74 47 5 14 39 30 213 103 68 29 156 67 195 85
147 69 166 74 205 56 19 -8 41 -19 48 -24z m9099 -102 c-2 -49 -3 -52 -18 -39
-14 13 -27 13 -75 5 -82 -15 -296 -47 -509 -76 -99 -14 -207 -29 -240 -35
-139 -22 -140 -22 -165 -2 -13 11 -21 25 -18 34 7 17 55 28 303 68 105 16 262
41 350 55 244 39 288 46 313 49 12 2 25 6 29 10 17 16 33 -19 30 -69z m-622
-206 c83 -11 202 -24 265 -29 124 -10 337 -37 385 -48 24 -6 32 -15 39 -45 5
-20 7 -40 3 -43 -6 -7 -173 10 -367 36 -74 10 -164 22 -200 25 -60 5 -169 20
-343 47 -74 11 -91 26 -62 58 28 31 37 31 280 -1z m-3768 -1401 c-3 -8 -6 -5
-6 6 -1 11 2 17 5 13 3 -3 4 -12 1 -19z m7140 -314 c-3 -3 -12 -4 -19 -1 -8 3
-5 6 6 6 11 1 17 -2 13 -5z m218 -10 c12 -3 26 -14 33 -25 11 -17 9 -19 -24
-19 -21 0 -33 4 -29 10 4 6 -6 8 -27 5 -20 -3 -49 1 -71 10 -20 8 -48 15 -62
15 -14 0 -25 5 -25 11 0 8 26 10 93 5 50 -4 101 -10 112 -12z m-8251 -259 c-4
-8 -8 -15 -10 -15 -2 0 -4 7 -4 15 0 8 4 15 10 15 5 0 7 -7 4 -15z m-24 -7 c0
-6 -3 -8 -6 -5 -4 3 -16 0 -28 -8 -11 -8 -25 -15 -31 -15 -11 0 45 38 58 39 4
1 7 -4 7 -11z m1 -45 c-12 -20 -14 -14 -5 12 4 9 9 14 11 11 3 -2 0 -13 -6
-23z m-96 5 c-11 -6 -29 -20 -39 -30 -11 -10 -31 -18 -45 -19 -14 0 -20 -3
-13 -6 13 -5 7 -23 -9 -23 -6 0 -7 5 -4 10 4 7 -3 9 -22 5 -20 -5 -15 0 16 14
24 12 46 19 49 16 3 -2 18 7 34 20 16 14 35 25 41 25 7 0 3 -6 -8 -12z m8529
-4 c27 -4 34 -9 25 -15 -9 -6 1 -9 28 -9 23 0 45 -4 48 -10 3 -5 15 -10 26
-10 10 0 19 -4 19 -10 0 -5 7 -10 15 -10 8 0 15 -4 15 -10 0 -5 9 -10 20 -10
11 0 20 -4 20 -10 0 -6 -28 -10 -64 -10 -48 0 -65 4 -70 15 -3 9 -18 15 -36
15 -27 0 -30 -3 -30 -34 l0 -34 70 -7 c86 -9 82 -25 -6 -25 -50 0 -64 3 -64
15 0 12 -14 15 -70 15 l-70 0 0 30 c0 27 -3 30 -30 30 -28 0 -30 3 -30 35 0
33 2 35 38 37 l37 1 -37 4 c-21 2 -38 9 -38 15 0 10 102 6 184 -8z m-8477 -10
c-3 -3 -12 -4 -19 -1 -8 3 -5 6 6 6 11 1 17 -2 13 -5z m30 -91 c-2 -16 -4 -5
-4 22 0 28 2 40 4 28 2 -13 2 -35 0 -50z m-271 40 c-17 -3 -30 -12 -33 -24 -6
-22 -4 -22 -37 -9 -23 8 -32 3 -87 -50 -34 -33 -71 -61 -83 -62 -43 -3 -52 -6
-91 -23 -22 -11 -43 -18 -47 -17 -5 1 -8 -3 -8 -8 0 -5 -9 -10 -20 -10 -11 0
-20 -4 -20 -10 0 -5 -5 -10 -12 -10 -6 0 -3 9 7 20 10 11 23 20 29 20 6 0 28
9 49 20 21 12 64 30 95 41 83 30 101 40 108 62 8 25 100 67 144 65 32 -1 32
-1 6 -5z m1217 -42 c23 -10 71 -31 107 -46 35 -15 75 -36 89 -46 13 -10 29
-19 36 -19 6 0 20 -10 31 -22 19 -21 19 -21 0 -14 -16 5 -17 4 -6 -9 10 -12
15 -13 21 -4 9 15 119 -64 119 -85 0 -7 11 -23 25 -36 29 -27 32 -40 9 -40 -8
0 -13 4 -10 9 3 5 -6 9 -20 9 -23 0 -24 -2 -9 -18 21 -23 19 -33 -5 -20 -11 6
-20 20 -20 30 0 13 -7 20 -19 20 -10 0 -24 7 -31 15 -7 8 -24 15 -39 15 l-26
1 30 14 30 13 -41 1 c-24 1 -47 7 -54 16 -7 8 -18 15 -25 15 -7 0 -18 7 -25
15 -9 10 -9 15 -1 15 6 0 11 14 11 30 0 27 -3 30 -34 30 -30 0 -33 -2 -28 -25
5 -27 -9 -33 -27 -11 -8 10 -9 16 -1 21 16 10 -7 45 -43 62 -63 30 -77 38 -77
46 0 4 5 5 10 2 6 -3 10 -1 10 4 0 6 -11 11 -25 11 -14 0 -25 5 -25 10 0 15
16 12 63 -9z m-1278 -41 c-3 -5 -12 -10 -18 -10 -7 0 -6 4 3 10 19 12 23 12
15 0z m354 -43 c1 -5 -3 -5 -9 -2 -5 3 -10 16 -9 28 0 21 1 21 9 2 5 -11 9
-24 9 -28z m8654 -24 c-7 -2 -19 -2 -25 0 -7 3 -2 5 12 5 14 0 19 -2 13 -5z
m-6400 -20 c-18 -2 -48 -2 -65 0 -18 2 -4 4 32 4 36 0 50 -2 33 -4z m214 -25
c1 -30 1 -30 -6 -8 -7 22 -12 25 -52 23 -35 -1 -39 0 -19 7 14 4 36 8 50 9 22
1 26 -3 27 -31z m823 12 c0 -5 -9 -10 -20 -10 -14 0 -18 -5 -13 -17 6 -16 4
-16 -15 1 -16 14 -30 17 -57 12 -23 -5 -33 -11 -29 -18 5 -7 2 -9 -9 -5 -9 3
-46 -7 -83 -23 -66 -30 -115 -41 -59 -14 26 13 27 14 5 10 -14 -3 -30 -6 -37
-6 -6 0 -11 -9 -10 -20 1 -18 8 -20 67 -19 51 1 59 3 35 9 -18 5 0 6 42 3 41
-3 106 0 148 7 42 7 77 11 79 9 2 -2 6 -47 9 -99 3 -54 2 -80 -3 -60 l-7 35
-2 -42 c0 -23 4 -45 9 -48 6 -3 9 -23 9 -43 -1 -20 -3 -29 -6 -19 -2 9 -9 14
-15 11 -7 -5 -9 1 -5 17 3 13 2 31 -3 39 -7 11 -10 4 -10 -25 0 -39 0 -39 -16
-16 -13 18 -15 36 -10 82 3 37 2 59 -4 59 -6 0 -13 -6 -16 -14 -3 -8 -15 -16
-26 -19 -12 -3 -17 -10 -13 -17 5 -8 -3 -9 -29 -5 -30 6 -35 5 -30 -8 4 -12 1
-14 -14 -10 -10 2 -26 -3 -35 -11 -14 -14 -16 -13 -25 12 l-10 27 -1 -32 c-1
-23 -6 -33 -17 -33 -11 0 -14 -6 -9 -21 7 -20 6 -20 -22 -5 -16 8 -35 22 -42
30 -8 9 -18 16 -23 16 -5 0 -16 6 -23 14 -13 13 -143 32 -153 22 -9 -10 19
-35 34 -29 8 3 14 0 14 -6 0 -6 -21 -20 -47 -32 -27 -11 -59 -33 -71 -47 -16
-18 -26 -23 -29 -14 -7 19 -61 15 -65 -5 -3 -13 -15 -1 -41 40 -21 31 -35 63
-31 69 5 7 3 8 -6 3 -8 -5 -11 -3 -8 6 3 8 18 17 34 20 27 6 27 7 4 8 -24 2
-24 2 -5 12 11 6 37 23 57 36 21 14 42 22 49 17 7 -4 10 -3 6 3 -7 10 70 53
94 53 11 0 59 13 268 72 58 16 132 33 165 38 34 4 64 8 69 9 4 0 7 -3 7 -9z
m-3933 -26 c-3 -3 -12 -4 -19 -1 -8 3 -5 6 6 6 11 1 17 -2 13 -5z m3866 -1
c-7 -2 -19 -2 -25 0 -7 3 -2 5 12 5 14 0 19 -2 13 -5z m-746 -60 c-3 -10 -5
-4 -5 12 0 17 2 24 5 18 2 -7 2 -21 0 -30z m818 27 c3 -5 -3 -10 -14 -10 -12
0 -21 5 -21 10 0 6 6 10 14 10 8 0 18 -4 21 -10z m-4059 -15 c-11 -8 -14 -15
-8 -15 7 0 12 -4 12 -10 0 -5 -9 -10 -20 -10 -14 0 -18 5 -13 18 7 19 23 32
38 32 6 -1 1 -7 -9 -15z m141 9 c-3 -3 -12 -4 -19 -1 -8 3 -5 6 6 6 11 1 17
-2 13 -5z m3080 -16 c-3 -8 -6 -5 -6 6 -1 11 2 17 5 13 3 -3 4 -12 1 -19z
m-1604 5 c-7 -2 -19 -2 -25 0 -7 3 -2 5 12 5 14 0 19 -2 13 -5z m1169 -48 c9
-20 9 -20 -6 -1 -9 11 -16 27 -15 35 0 14 1 14 6 1 3 -8 10 -24 15 -35z m2337
18 c1 4 17 -4 36 -19 19 -14 32 -31 28 -37 -3 -5 -2 -7 3 -4 12 7 22 0 49 -32
17 -20 17 -23 3 -18 -23 8 -31 -16 -28 -97 1 -43 -2 -66 -9 -62 -5 4 -14 -2
-20 -11 -6 -10 -11 -13 -11 -8 0 6 7 20 15 32 11 15 13 34 9 67 -6 41 -10 47
-38 55 -17 4 -30 13 -29 18 1 6 -2 26 -7 44 -7 23 -6 37 3 48 11 14 10 14 -5
2 -14 -11 -18 -11 -18 -1 0 8 -3 11 -6 8 -3 -4 0 -16 6 -29 10 -18 10 -21 -2
-16 -19 7 -49 -12 -30 -20 19 -7 15 -40 -5 -40 -10 0 -22 5 -26 11 -5 6 -7 2
-4 -12 3 -12 2 -20 -3 -17 -4 3 -10 -2 -14 -10 -3 -8 -11 -15 -18 -15 -10 0
-10 2 -1 8 6 4 17 19 23 32 5 14 19 39 30 55 11 17 28 45 37 63 15 28 18 31
24 15 4 -10 8 -14 8 -10z m3881 12 c0 -12 18 -15 100 -15 64 0 100 -4 100 -11
0 -6 14 -9 33 -7 25 2 33 8 35 27 l4 24 111 -7 c218 -13 237 -22 97 -47 -75
-14 -325 -15 -477 -3 -69 5 -73 7 -73 30 0 21 5 24 35 24 24 0 35 -5 35 -15z
m-7110 -27 c10 -6 7 -7 -10 -2 -14 3 -32 11 -40 16 -10 6 -7 7 10 2 14 -3 32
-11 40 -16z m35 12 c3 -6 -1 -7 -9 -4 -18 7 -21 14 -7 14 6 0 13 -4 16 -10z
m7718 3 c-7 -2 -21 -2 -30 0 -10 3 -4 5 12 5 17 0 24 -2 18 -5z m-13165 -28
c-3 -3 -9 2 -12 12 -6 14 -5 15 5 6 7 -7 10 -15 7 -18z m3470 -10 c-6 -14 -13
-23 -15 -21 -5 5 15 46 22 46 3 0 -1 -11 -7 -25z m2029 3 c18 -7 33 -18 33
-26 0 -10 -7 -8 -27 6 -16 11 -37 22 -48 25 -11 2 -14 5 -6 6 8 0 30 -4 48
-11z m1287 -38 c4 -25 3 -31 -4 -20 -5 8 -10 26 -10 39 0 32 6 24 14 -19z
m-1107 -31 c4 -20 -28 -58 -34 -41 -3 6 -11 12 -19 12 -20 0 -17 20 4 21 9 1
20 1 24 0 4 0 4 7 1 15 -4 12 -2 15 8 12 8 -3 15 -11 16 -19z m681 -24 c-3 -3
-9 2 -12 12 -6 14 -5 15 5 6 7 -7 10 -15 7 -18z m-6849 12 c-2 -1 -13 -9 -24
-17 -19 -14 -19 -14 -6 3 7 9 18 17 24 17 6 0 8 -1 6 -3z m9151 -36 c-1 -15
-29 -41 -44 -41 -11 0 -16 9 -16 28 0 16 3 31 6 35 7 6 54 -13 54 -22z m-1131
-55 c-9 -8 -10 -7 -5 7 3 10 7 31 8 45 1 22 2 21 5 -7 3 -19 -1 -38 -8 -45z
m-1899 49 c17 -21 5 -31 -15 -12 -8 9 -15 18 -15 21 0 11 18 6 30 -9z m2865
-25 c-3 -5 -12 -10 -18 -10 -7 0 -6 4 3 10 19 12 23 12 15 0z m-2883 -32 c-9
-9 -12 -7 -12 12 0 19 3 21 12 12 9 -9 9 -15 0 -24z m791 12 c3 -11 1 -18 -4
-14 -5 3 -9 12 -9 20 0 20 7 17 13 -6z m2222 -10 c4 -7 -3 -8 -22 -4 -38 9
-42 14 -10 14 14 0 29 -5 32 -10z m85 0 c0 -5 -4 -10 -10 -10 -5 0 -10 5 -10
10 0 6 5 10 10 10 6 0 10 -4 10 -10z m-7630 -45 c9 -10 9 -15 1 -15 -6 0 -11
5 -11 11 0 6 -7 8 -16 5 -8 -3 -12 -2 -9 4 9 14 21 12 35 -5z m6295 5 c3 -5 1
-10 -4 -10 -6 0 -11 5 -11 10 0 6 2 10 4 10 3 0 8 -4 11 -10z m-915 -54 c0 -6
-7 -1 -15 10 -8 10 -15 23 -15 28 0 6 7 1 15 -10 8 -10 15 -23 15 -28z m1000
34 c0 -5 -4 -10 -10 -10 -5 0 -10 5 -10 10 0 6 5 10 10 10 6 0 10 -4 10 -10z
m-6330 -35 c13 -14 21 -25 18 -25 -2 0 -15 11 -28 25 -13 14 -21 25 -18 25 2
0 15 -11 28 -25z m6529 -45 c0 -10 -3 -8 -9 5 -12 27 -12 43 0 25 5 -8 9 -22
9 -30z m-1164 -10 c9 -16 13 -30 11 -30 -3 0 -12 14 -21 30 -9 17 -13 30 -11
30 3 0 12 -13 21 -30z m6635 -30 c12 -8 9 -10 -12 -10 -16 0 -28 5 -28 10 0
13 20 13 40 0z m-7393 -42 c-3 -8 -6 -5 -6 6 -1 11 2 17 5 13 3 -3 4 -12 1
-19z m7317 -4 c6 -23 11 -26 40 -22 24 3 32 0 29 -8 -3 -8 7 -14 24 -17 15 -2
-3 -2 -42 1 -38 2 -106 -1 -150 -8 -44 -7 -90 -14 -101 -15 -12 -2 -30 -7 -40
-13 -11 -5 -36 -12 -56 -15 -35 -5 -37 -4 -25 14 13 22 30 27 95 33 24 2 48 8
55 15 6 6 21 11 32 11 12 0 32 11 45 25 33 36 85 35 94 -1z m-7314 -26 c0 -4
-4 -8 -9 -8 -6 0 -12 4 -15 8 -3 5 1 9 9 9 8 0 15 -4 15 -9z m19 -77 c1 -35
-5 -22 -12 24 -5 28 -4 34 3 20 5 -11 9 -31 9 -44z m787 31 c-18 -16 -18 -16
-6 6 6 13 14 21 18 18 3 -4 -2 -14 -12 -24z m4718 -6 c-3 -9 -19 -17 -35 -17
-16 -1 -34 -2 -41 -3 -6 -1 -13 5 -16 12 -2 7 2 10 10 7 8 -3 30 1 49 9 39 16
42 15 33 -8z m1414 -27 c-7 -5 -31 -8 -53 -7 -34 1 -35 2 -10 5 17 3 34 8 39
13 5 5 15 6 23 3 12 -5 12 -7 1 -14z m-6148 4 c0 -5 -10 -19 -21 -33 l-20 -25
16 33 c15 30 25 41 25 25z m-890 -28 c-7 -8 -17 -15 -22 -15 -6 0 -5 7 2 15 7
8 17 15 22 15 6 0 5 -7 -2 -15z m45 -44 c-3 -6 -11 -11 -16 -11 -5 0 -4 6 3
14 14 16 24 13 13 -3z m93 -86 c-1 -31 -16 35 -16 70 0 25 2 24 9 -10 4 -22 8
-49 7 -60z m727 85 c3 -5 -1 -10 -9 -10 -17 0 -21 -12 -9 -23 3 -4 7 -19 9
-34 l2 -28 -13 29 c-9 21 -13 24 -18 13 -3 -8 -3 -24 0 -35 2 -11 0 -23 -5
-26 -6 -4 -8 3 -4 16 3 14 2 19 -6 14 -17 -10 -15 -3 10 49 22 45 32 53 43 35z
m6485 -20 c0 -5 14 -10 30 -10 25 0 30 -4 30 -25 0 -24 -2 -25 -65 -25 -50 0
-65 3 -65 14 0 8 12 17 28 19 15 2 8 3 -15 1 -32 -3 -43 0 -43 10 0 8 6 17 13
19 22 10 87 7 87 -3z m-140 -45 c0 -10 -10 -15 -30 -15 -20 0 -30 5 -30 15 0
10 10 15 30 15 20 0 30 -5 30 -15z m-1800 -25 c0 -5 -10 -10 -22 -10 -19 0
-20 2 -8 10 19 13 30 13 30 0z m-4619 -33 c-10 -9 -11 -8 -5 6 3 10 9 15 12
12 3 -3 0 -11 -7 -18z m62 6 c-7 -3 -14 -19 -14 -36 -2 -31 -2 -31 -6 -4 -4
28 14 64 26 51 3 -4 0 -9 -6 -11z m-700 -63 c2 -19 2 -27 0 -17 -2 9 -7 17
-11 17 -4 0 -7 11 -7 25 0 34 13 17 18 -25z m-68 30 c-3 -5 -12 -10 -18 -10
-7 0 -6 4 3 10 19 12 23 12 15 0z m7065 -20 c0 -5 14 -10 30 -10 20 0 30 -5
30 -15 0 -12 -14 -15 -65 -15 -63 0 -65 1 -65 25 0 22 4 25 35 25 19 0 35 -4
35 -10z m-7110 -10 c0 -5 -4 -10 -10 -10 -5 0 -10 5 -10 10 0 6 5 10 10 10 6
0 10 -4 10 -10z m704 -45 c-22 -44 -53 -88 -43 -60 11 29 61 116 64 113 3 -2
-7 -26 -21 -53z m-744 30 c0 -10 -10 -15 -32 -15 l-33 1 25 14 c32 18 40 18
40 0z m137 -27 c-3 -7 -5 -2 -5 12 0 14 2 19 5 13 2 -7 2 -19 0 -25z m-6810
-25 c-3 -10 -5 -4 -5 12 0 17 2 24 5 18 2 -7 2 -21 0 -30z m7550 -35 c-3 -8
-6 -5 -6 6 -1 11 2 17 5 13 3 -3 4 -12 1 -19z m6603 7 c0 -8 -41 -11 -137 -11
-76 0 -121 1 -100 3 20 3 37 8 37 12 0 4 45 8 100 8 69 0 100 -4 100 -12z
m-2300 -9 c0 -2 -7 -9 -15 -16 -13 -11 -14 -10 -9 4 5 14 24 23 24 12z m-4504
-68 c-14 -24 -26 -40 -26 -36 0 13 42 89 47 84 3 -2 -7 -24 -21 -48z m-689 36
c-3 -3 -12 -4 -19 -1 -8 3 -5 6 6 6 11 1 17 -2 13 -5z m5643 -35 c0 -6 -8 -18
-17 -27 -16 -16 -16 -16 -10 1 4 10 7 23 7 28 0 5 5 9 10 9 6 0 10 -5 10 -11z
m-5630 -19 c0 -5 -4 -10 -10 -10 -5 0 -10 5 -10 10 0 6 5 10 10 10 6 0 10 -4
10 -10z m187 -62 c-2 -13 -4 -5 -4 17 -1 22 1 32 4 23 2 -10 2 -28 0 -40z
m-6887 29 c0 -2 -10 -12 -22 -23 l-23 -19 19 23 c18 21 26 27 26 19z m7343
-12 c-3 -9 -8 -14 -10 -11 -3 3 -2 9 2 15 9 16 15 13 8 -4z m4963 -32 c-11
-11 -19 6 -11 24 8 17 8 17 12 0 3 -10 2 -21 -1 -24z m-5442 12 c3 -8 1 -15
-4 -15 -6 0 -10 7 -10 15 0 8 2 15 4 15 2 0 6 -7 10 -15z m5446 -60 c0 -5 -4
-4 -9 3 -6 10 -12 7 -25 -13 -13 -20 -16 -38 -10 -85 4 -39 3 -60 -4 -60 -15
0 -24 47 -16 96 8 52 42 103 55 82 5 -7 9 -17 9 -23z m-5019 -12 c-12 -20 -14
-14 -5 12 4 9 9 14 11 11 3 -2 0 -13 -6 -23z m-481 -3 c0 -5 -7 -10 -16 -10
-8 0 -12 5 -9 10 3 6 10 10 16 10 5 0 9 -4 9 -10z m-187 -7 c-7 -2 -19 -2 -25
0 -7 3 -2 5 12 5 14 0 19 -2 13 -5z m137 3 c0 -8 -60 -12 -72 -4 -8 4 4 8 30
8 23 0 42 -2 42 -4z m532 -58 c-8 -8 -9 -4 -5 13 4 13 8 18 11 10 2 -7 -1 -18
-6 -23z m-32 -15 c-11 -17 -11 -17 -6 0 3 10 6 24 7 30 0 9 2 9 5 0 3 -7 0
-20 -6 -30z m6120 -8 c0 -10 -11 -15 -35 -15 -41 0 -47 17 -7 23 15 2 30 5 35
6 4 0 7 -6 7 -14z m-6038 -25 c9 -17 24 -30 33 -30 8 0 15 -3 15 -7 0 -12 59
-43 80 -43 9 0 23 -6 29 -13 9 -12 -2 -14 -62 -16 -39 -1 -88 -4 -107 -6 -32
-5 -33 -4 -10 5 13 6 28 16 32 23 11 17 10 37 -3 37 -14 0 -34 21 -35 38 -2
29 -5 33 -16 26 -7 -4 -8 -3 -4 4 12 20 30 13 48 -18z m5914 -4 c10 -11 11
-15 2 -18 -12 -4 -38 14 -38 26 0 11 21 6 36 -8z m-148 -50 c-1 -2 -22 -6 -46
-9 -36 -4 -41 -3 -31 9 18 22 73 34 77 16 2 -7 2 -15 0 -16z m105 27 c-13 -2
-35 -2 -50 0 -16 2 -5 4 22 4 28 0 40 -2 28 -4z m-1002 -43 c-14 -13 -18 -20
-10 -21 11 0 11 -2 2 -6 -7 -2 -13 -20 -13 -39 0 -30 -3 -34 -25 -32 -20 2
-24 6 -19 23 7 20 6 20 -15 1 -11 -11 -23 -17 -26 -15 -7 8 48 66 85 88 44 26
52 26 21 1z m-1429 -12 c-5 -5 -18 -11 -28 -12 -27 -4 -29 -26 -2 -27 17 -1
18 -3 6 -6 -10 -2 -18 -9 -18 -14 0 -6 4 -8 8 -5 4 2 19 -4 32 -15 28 -21 13
-26 -23 -7 -47 24 -53 25 -75 10 -12 -8 -25 -12 -28 -9 -3 3 3 8 13 12 10 3
33 24 51 47 17 22 32 34 32 27 1 -9 4 -8 11 4 6 9 15 15 20 11 7 -4 7 -10 1
-16z m2198 3 c0 -8 -56 -21 -95 -21 -18 0 -17 2 5 14 28 16 90 21 90 7z
m-5774 -38 c-8 -15 -15 -25 -16 -21 0 12 23 58 27 54 3 -2 -2 -17 -11 -33z
m4309 27 c-3 -5 -14 -10 -23 -9 -14 0 -13 2 3 9 27 11 27 11 20 0z m45 0 c0
-5 -5 -10 -11 -10 -5 0 -7 5 -4 10 3 6 8 10 11 10 2 0 4 -4 4 -10z m-120 -27
c0 -5 -13 -17 -28 -27 l-27 -19 24 26 c26 28 31 32 31 20z m-1563 -64 c70 -34
138 -65 151 -70 12 -5 22 -13 22 -18 0 -6 7 -7 17 -4 11 5 14 3 8 -6 -5 -10
-1 -12 16 -7 13 3 18 3 11 0 -6 -3 -9 -10 -6 -16 4 -6 1 -8 -7 -4 -8 3 -22 9
-31 12 -10 4 -18 13 -18 21 0 12 -8 14 -37 10 -25 -4 -33 -3 -23 3 20 12 8 21
-28 22 -17 1 -31 4 -30 7 2 17 -4 19 -31 11 -15 -4 -35 -4 -42 1 -15 9 -6 12
36 11 11 -1 4 4 -15 10 -19 7 -40 18 -46 26 -8 12 -15 12 -32 3 -12 -6 -22
-16 -22 -22 0 -6 -5 -7 -11 -4 -6 4 -8 14 -5 22 4 10 2 13 -6 10 -7 -2 -24 0
-37 4 -19 8 -21 12 -11 24 20 24 42 18 177 -46z m2712 38 c-6 -10 -17 -21 -25
-24 -8 -3 -14 -19 -14 -42 0 -37 -18 -75 -26 -56 -2 6 -22 9 -43 7 -44 -4 -65
14 -26 24 19 5 25 12 25 35 0 41 27 38 33 -3 3 -21 4 -14 4 16 -1 52 11 66 60
63 18 -1 20 -4 12 -20z m251 13 c0 -5 -17 -10 -38 -10 -21 0 -47 -7 -58 -15
-23 -18 -77 -20 -72 -3 9 27 168 54 168 28z m-2210 -60 c-6 -11 -13 -20 -16
-20 -2 0 0 9 6 20 6 11 13 20 16 20 2 0 0 -9 -6 -20z m705 -29 c-22 -21 -48
-50 -58 -62 -11 -15 -9 -10 4 13 20 35 72 88 87 88 4 0 -11 -18 -33 -39z m989
28 c28 -1 43 -3 33 -6 -12 -3 -15 -11 -11 -28 4 -18 1 -25 -15 -30 -12 -3 -21
-11 -21 -16 0 -5 -16 -9 -35 -9 -19 0 -35 -4 -35 -10 0 -5 -13 -10 -29 -10
-17 0 -33 -4 -36 -10 -3 -5 -19 -10 -36 -10 -16 0 -29 5 -29 10 0 6 -16 10
-35 10 -19 0 -35 -4 -35 -10 0 -6 -38 -10 -95 -10 -76 0 -97 -3 -101 -15 -8
-20 -189 -22 -197 -2 -4 9 -8 9 -15 -2 -7 -10 -11 -6 -14 16 -8 55 40 72 199
73 50 0 93 4 95 10 2 5 38 10 81 12 42 2 77 6 77 9 0 4 23 9 52 11 29 3 54 11
56 18 3 9 18 11 50 6 24 -3 68 -7 96 -7z m-4795 -28 c11 -7 4 -12 -24 -20 -22
-6 -41 -8 -44 -5 -3 2 5 7 17 11 12 3 22 9 22 14 0 11 11 11 29 0z m3085 -19
c-3 -9 -18 -25 -35 -34 -16 -9 -29 -23 -29 -30 0 -7 -18 -21 -40 -30 -46 -19
-53 -16 -12 6 15 8 47 35 72 60 25 25 46 45 47 46 0 0 -1 -8 -3 -18z m-10964
-7 c-7 -8 -17 -15 -23 -15 -6 0 -2 7 9 15 25 19 30 19 14 0z m7076 -3 c-10 -2
-22 0 -28 6 -6 6 0 7 19 4 21 -5 23 -7 9 -10z m639 -1 c-3 -6 -11 -11 -17 -11
-6 0 -6 6 2 15 14 17 26 13 15 -4z m361 1 c-10 -2 -22 0 -28 6 -6 6 0 7 19 4
21 -5 23 -7 9 -10z m2181 12 c-3 -3 -12 -4 -19 -1 -8 3 -5 6 6 6 11 1 17 -2
13 -5z m-3018 -15 c-17 -11 -56 -12 -62 -1 -3 4 13 8 36 9 27 1 36 -2 26 -8z
m681 2 c0 -9 -61 -41 -78 -41 -6 0 -12 -4 -14 -9 -1 -4 -12 -5 -23 0 l-20 8
20 1 c11 0 29 7 39 15 11 8 28 15 38 15 10 0 18 5 18 10 0 6 5 10 10 10 6 0
10 -4 10 -9z m110 -1 c0 -5 -9 -10 -20 -10 -23 0 -26 -13 -6 -29 11 -9 20 -9
35 -2 11 6 35 11 53 10 18 0 26 -3 18 -6 -8 -3 -18 -11 -22 -16 -4 -7 -12 -6
-23 3 -15 13 -17 12 -13 -5 2 -15 -5 -23 -32 -32 -35 -12 -80 -8 -80 8 0 4 10
15 22 23 12 9 19 18 15 22 -7 7 -67 -18 -67 -28 0 -5 -9 -8 -20 -8 -34 0 -22
16 33 43 76 38 107 46 107 27z m150 -20 c8 -5 11 -10 5 -10 -5 0 -17 5 -25 10
-8 5 -10 10 -5 10 6 0 17 -5 25 -10z m-8210 -4 c0 -2 -8 -10 -17 -17 -16 -13
-17 -12 -4 4 13 16 21 21 21 13z m8273 -3 c-7 -2 -19 -2 -25 0 -7 3 -2 5 12 5
14 0 19 -2 13 -5z m-1166 -9 c-3 -3 -12 -4 -19 -1 -8 3 -5 6 6 6 11 1 17 -2
13 -5z m60 0 c-3 -3 -12 -4 -19 -1 -8 3 -5 6 6 6 11 1 17 -2 13 -5z m623 -4
c0 -5 -5 -10 -11 -10 -5 0 -7 5 -4 10 3 6 8 10 11 10 2 0 4 -4 4 -10z m547 4
c-3 -3 -12 -4 -19 -1 -8 3 -5 6 6 6 11 1 17 -2 13 -5z m-1057 -14 c0 -13 -30
-13 -50 0 -11 7 -7 10 18 10 17 0 32 -4 32 -10z m1173 -30 c-1 -23 1 -29 8
-19 7 11 13 10 31 -10 13 -14 15 -19 6 -12 -10 7 -24 11 -33 8 -18 -8 -30 11
-27 43 3 25 3 24 -12 -4 -9 -15 -13 -32 -10 -37 3 -5 -9 -9 -26 -9 -41 0 -51
26 -19 51 24 18 55 28 74 24 6 -1 9 -17 8 -35z m2099 27 c28 -10 35 -16 27
-27 -5 -9 -9 -10 -9 -3 0 7 -14 9 -42 6 -30 -3 -39 -2 -29 5 7 5 10 15 7 21
-9 14 0 14 46 -2z m-3229 -9 c15 -12 14 -13 -12 -15 -23 -2 -29 1 -24 12 6 18
14 19 36 3z m3304 -14 c-3 -3 -12 -4 -19 -1 -8 3 -5 6 6 6 11 1 17 -2 13 -5z
m128 -34 c28 -4 40 -8 28 -9 -14 0 -23 -8 -24 -18 -1 -16 -2 -16 -6 -2 -4 18
-53 32 -80 23 -15 -5 -16 -4 -3 5 21 15 -4 15 -32 0 -16 -9 -24 -7 -37 6 -9
10 -10 15 -4 11 7 -4 20 -3 30 2 10 6 28 6 47 0 17 -6 54 -14 81 -18z m-10835
16 c0 -2 -7 -7 -16 -10 -8 -3 -12 -2 -9 4 6 10 25 14 25 6z m210 -6 c-8 -5
-22 -9 -30 -9 -10 0 -8 3 5 9 27 12 43 12 25 0z m8060 -8 c0 -4 -5 -13 -12
-20 -9 -9 -7 -12 13 -12 23 -1 23 -2 -6 -14 -28 -12 -65 -11 -65 2 0 2 11 15
26 28 25 24 44 31 44 16z m-683 -34 c-3 -8 -6 -5 -6 6 -1 11 2 17 5 13 3 -3 4
-12 1 -19z m780 16 c-3 -3 -12 -4 -19 -1 -8 3 -5 6 6 6 11 1 17 -2 13 -5z m50
0 c-3 -3 -12 -4 -19 -1 -8 3 -5 6 6 6 11 1 17 -2 13 -5z m-8497 -8 c0 -2 -12
-11 -27 -20 l-28 -17 24 20 c23 21 31 25 31 17z m7597 -21 c-15 -16 -19 -13
-11 9 3 9 10 13 15 10 5 -3 3 -11 -4 -19z m3427 16 c15 -6 16 -10 7 -16 -8 -4
-16 -2 -21 5 -10 16 -22 -3 -14 -23 3 -8 1 -18 -5 -22 -6 -3 -11 -1 -11 4 0 6
-7 11 -16 11 -9 0 -14 6 -11 13 2 6 10 11 16 10 6 -2 11 4 11 12 0 16 14 18
44 6z m-10874 -11 c-8 -5 -19 -10 -25 -10 -5 0 -3 5 5 10 8 5 20 10 25 10 6 0
3 -5 -5 -10z m7347 4 c-3 -3 -12 -4 -19 -1 -8 3 -5 6 6 6 11 1 17 -2 13 -5z
m1197 -63 c-3 -3 -11 2 -18 12 -7 9 -19 17 -25 17 -7 0 -9 5 -6 11 5 7 16 2
31 -12 13 -12 21 -25 18 -28z m-5524 35 c0 -11 -19 -15 -25 -6 -3 5 1 10 9 10
9 0 16 -2 16 -4z m5067 -23 c-3 -3 -11 -2 -17 2 -9 6 -9 10 1 16 14 8 27 -7
16 -18z m-797 8 c0 -11 -59 -26 -67 -17 -4 3 3 6 15 6 12 0 22 5 22 10 0 6 7
10 15 10 8 0 15 -4 15 -9z m-4427 -8 c-7 -2 -19 -2 -25 0 -7 3 -2 5 12 5 14 0
19 -2 13 -5z m134 -25 c-3 -8 -6 -5 -6 6 -1 11 2 17 5 13 3 -3 4 -12 1 -19z
m4373 12 c0 -5 -7 -7 -15 -4 -8 4 -15 8 -15 10 0 2 7 4 15 4 8 0 15 -4 15 -10z
m684 -21 c-7 -11 -34 -12 -34 -1 0 14 11 21 26 15 8 -3 11 -9 8 -14z m1644 5
c88 -8 106 -22 21 -16 -39 3 -65 0 -72 -7 -9 -9 -8 -11 5 -6 13 5 15 2 11 -15
-5 -19 -7 -18 -29 14 -13 19 -29 37 -36 40 -7 3 -4 4 7 1 11 -2 53 -7 93 -11z
m-2394 -23 c18 -7 18 -8 3 -14 -9 -3 -17 -2 -17 3 0 5 -8 11 -17 13 -12 3 -13
5 -3 5 8 0 24 -3 34 -7z m2662 -4 c8 -10 13 -77 6 -77 -6 0 -9 8 -8 17 1 13
-9 20 -34 24 l-35 6 33 2 c61 2 32 19 -45 26 -110 9 -116 16 -9 10 50 -3 91
-6 92 -8z m-139 -34 c-3 -3 -11 -2 -17 2 -9 6 -9 10 1 16 14 8 27 -7 16 -18z
m-2917 -27 c0 -2 -9 -2 -20 1 -11 3 -20 9 -20 15 0 5 9 4 20 -2 11 -6 20 -12
20 -14z m300 10 c0 -3 -4 -8 -10 -11 -5 -3 -10 -1 -10 4 0 6 5 11 10 11 6 0
10 -2 10 -4z m125 -12 c19 -15 19 -15 -5 -11 -14 2 -19 2 -12 0 13 -5 17 -23
4 -23 -18 0 -45 28 -38 38 10 16 27 14 51 -4z m133 -30 c-4 -3 -12 5 -18 18
-12 22 -12 22 6 6 10 -10 15 -20 12 -24z m2427 26 c3 -5 1 -10 -4 -10 -6 0
-11 5 -11 10 0 6 2 10 4 10 3 0 8 -4 11 -10z m-2506 -14 c10 -12 8 -13 -8 -9
-12 3 -18 9 -15 14 7 12 10 11 23 -5z m-109 -6 c0 -5 -7 -10 -16 -10 -8 0 -12
5 -9 10 3 6 10 10 16 10 5 0 9 -4 9 -10z m105 -24 c33 -35 37 -48 7 -23 -19
15 -38 27 -43 27 -5 0 -9 4 -9 10 0 11 30 1 45 -14z m2611 -3 c-6 -6 -36 9
-36 18 0 5 9 4 20 -3 10 -7 18 -14 16 -15z m77 16 c58 -16 40 -19 -23 -4 -30
7 -46 14 -35 14 11 1 37 -4 58 -10z m-5243 -74 c0 -5 -5 -3 -10 5 -5 8 -10 20
-10 25 0 6 5 3 10 -5 5 -8 10 -19 10 -25z m6960 -275 c-13 -9 -13 -10 0 -11
31 -4 35 -5 57 -17 12 -7 28 -12 35 -12 7 0 19 -9 26 -20 7 -11 22 -20 34 -20
19 0 17 4 -15 31 -21 17 -37 35 -37 40 0 11 40 12 40 2 0 -5 18 -21 40 -37 44
-32 50 -50 22 -65 -12 -6 -25 -5 -42 5 -14 7 -36 13 -50 14 -15 0 -31 5 -37
11 -9 9 -48 18 -113 24 -14 1 -32 3 -40 4 -15 1 66 59 85 60 6 0 3 -4 -5 -9z
m-110 -60 c-8 -5 -19 -10 -25 -10 -5 0 -3 5 5 10 8 5 20 10 25 10 6 0 3 -5 -5
-10z m135 -41 c13 -5 -1 -8 -45 -9 -36 0 -72 -5 -80 -10 -11 -7 4 -10 48 -10
35 0 73 -5 84 -11 14 -8 23 -8 31 0 13 13 28 15 26 4 -6 -38 4 -92 21 -110 15
-17 16 -22 5 -27 -16 -6 -75 15 -75 26 0 4 -13 8 -30 8 -16 0 -30 -4 -30 -10
0 -5 14 -10 30 -10 17 0 30 -5 30 -11 0 -7 8 -18 17 -25 10 -7 15 -15 12 -19
-4 -3 -14 1 -22 10 -23 22 -64 19 -70 -5 -4 -15 -14 -20 -36 -20 -17 0 -31 -4
-31 -10 0 -5 -16 -10 -35 -10 -33 0 -35 -2 -35 -35 0 -32 -2 -35 -30 -35 -27
0 -30 -3 -30 -30 0 -16 5 -30 10 -30 6 0 5 -8 -2 -20 -15 -23 -38 -27 -38 -6
0 8 -6 16 -13 19 -18 7 -106 -10 -122 -23 -7 -5 -33 -13 -59 -16 -25 -4 -46
-11 -46 -15 0 -5 -19 -9 -42 -9 -44 0 -94 -13 -141 -36 -16 -8 -42 -14 -58
-14 -16 0 -29 -4 -29 -10 0 -5 -5 -10 -11 -10 -5 0 -7 6 -3 13 4 6 -3 2 -15
-10 -25 -27 -41 -29 -41 -7 0 8 4 13 9 10 5 -3 15 2 22 11 10 12 10 14 2 9 -7
-4 -13 -3 -13 2 0 15 26 33 35 24 5 -4 5 -2 1 5 -8 15 39 67 54 58 6 -3 9 -3
8 2 -3 12 25 53 38 53 6 0 16 12 23 27 11 24 10 25 -4 13 -8 -7 -18 -10 -22
-7 -3 4 11 14 32 23 40 16 135 12 135 -7 0 -5 5 -9 10 -9 6 0 9 3 9 8 -3 20 2
25 12 12 8 -12 9 -10 4 8 -4 13 -2 22 4 22 6 0 11 -7 11 -16 0 -8 5 -12 10 -9
7 4 7 12 0 24 -8 15 1 27 49 67 72 60 152 110 137 85 -4 -6 -2 -11 4 -11 7 0
10 6 7 14 -8 19 18 41 105 86 75 40 112 44 173 19z m123 -124 c-3 -3 -13 7
-23 22 l-17 28 23 -22 c12 -12 20 -25 17 -28z m-548 -315 c0 -5 -4 -10 -9 -10
-5 0 -17 -3 -27 -7 -16 -6 -17 -5 -4 10 17 18 40 22 40 7z m-125 -94 c53 -19
55 -32 3 -28 -30 2 -39 0 -29 -6 11 -8 4 -19 -32 -54 -34 -31 -47 -52 -47 -71
0 -20 -5 -27 -20 -27 -16 0 -20 -7 -20 -30 0 -17 -5 -30 -12 -30 -7 -1 1 -7
17 -15 l30 -13 -35 -2 c-31 -1 -33 -2 -12 -10 35 -15 26 -19 -14 -7 -20 6 -31
13 -25 15 18 6 13 32 -6 32 -15 0 -16 -2 -3 -10 13 -8 13 -10 -1 -10 -9 0 -19
3 -23 7 -7 7 -13 8 -100 11 -38 2 -47 5 -42 17 5 15 -8 19 -47 15 -18 -1 -18
0 -2 24 20 29 25 31 44 14 10 -9 12 -9 7 -1 -3 6 2 16 11 22 11 6 13 11 5 11
-7 0 -10 5 -6 11 5 8 8 8 14 0 3 -7 14 -9 24 -5 14 5 15 9 4 15 -10 7 -10 9 2
9 13 0 13 1 0 10 -12 8 -11 10 6 10 22 0 47 22 42 36 -5 14 36 50 68 62 42 15
153 14 199 -2z m-305 -20 c0 -3 -4 -8 -10 -11 -5 -3 -10 -1 -10 4 0 6 5 11 10
11 6 0 10 -2 10 -4z m-28 -58 c-8 -8 -9 -4 -5 13 4 13 8 18 11 10 2 -7 -1 -18
-6 -23z m388 4 c0 -13 -12 -22 -22 -16 -10 6 -1 24 13 24 5 0 9 -4 9 -8z m-70
-51 c0 -6 -4 -13 -10 -16 -5 -3 -10 1 -10 9 0 9 5 16 10 16 6 0 10 -4 10 -9z
m-60 -65 c0 -3 -4 -8 -10 -11 -5 -3 -10 -1 -10 4 0 6 5 11 10 11 6 0 10 -2 10
-4z m-326 -38 c15 3 18 1 11 -6 -5 -6 -21 -13 -35 -17 -21 -5 -26 -2 -27 15
-1 16 2 18 14 11 9 -4 25 -6 37 -3z m-64 -22 c0 -2 -8 -10 -17 -17 -16 -13
-17 -12 -4 4 13 16 21 21 21 13z m-3505 -236 c-3 -5 -18 -10 -33 -9 l-27 1 25
8 c35 11 42 11 35 0z"/>
<path d="M7318 3708 c5 -5 16 -8 23 -6 8 3 3 7 -10 11 -17 4 -21 3 -13 -5z"/>
<path d="M7650 3511 c0 -6 9 -9 19 -8 11 0 17 5 15 9 -7 11 -34 10 -34 -1z"/>
<path d="M7690 3460 c0 -5 7 -10 16 -10 8 0 12 5 9 10 -3 6 -10 10 -16 10 -5
0 -9 -4 -9 -10z"/>
<path d="M9310 3510 c-8 -5 -10 -10 -5 -10 6 0 17 5 25 10 8 5 11 10 5 10 -5
0 -17 -5 -25 -10z"/>
<path d="M9702 3480 c0 -14 2 -19 5 -12 2 6 2 18 0 25 -3 6 -5 1 -5 -13z"/>
<path d="M9598 3423 c7 -3 16 -2 19 1 4 3 -2 6 -13 5 -11 0 -14 -3 -6 -6z"/>
<path d="M9046 3411 c-4 -5 3 -7 14 -4 23 6 26 13 6 13 -8 0 -17 -4 -20 -9z"/>
<path d="M9550 3400 c0 -5 7 -10 16 -10 8 0 12 5 9 10 -3 6 -10 10 -16 10 -5
0 -9 -4 -9 -10z"/>
<path d="M9420 3391 c0 -6 -17 -11 -37 -13 -35 -3 -36 -4 -19 -21 18 -17 19
-17 38 2 11 12 31 21 48 21 17 0 30 5 30 10 0 6 -13 10 -30 10 -16 0 -30 -4
-30 -9z"/>
<path d="M10823 3389 c0 -34 3 -36 16 -11 6 11 5 21 -3 28 -10 9 -13 5 -13
-17z"/>
<path d="M15100 3490 c0 -5 6 -10 14 -10 8 0 18 5 21 10 3 6 -3 10 -14 10 -12
0 -21 -4 -21 -10z"/>
<path d="M11760 2129 c0 -5 5 -7 10 -4 6 3 10 8 10 11 0 2 -4 4 -10 4 -5 0
-10 -5 -10 -11z"/>
<path d="M10766 2121 c-3 -5 5 -8 19 -7 14 0 25 4 25 9 0 10 -38 9 -44 -2z"/>
<path d="M12130 1066 c0 -2 7 -7 16 -10 8 -3 12 -2 9 4 -6 10 -25 14 -25 6z"/>
<path d="M12117 1049 c7 -7 15 -10 18 -7 3 3 -2 9 -12 12 -14 6 -15 5 -6 -5z"/>
<path d="M12055 1004 c-11 -9 -19 -20 -17 -25 1 -6 -4 -9 -12 -7 -8 2 -15 -1
-14 -7 0 -5 5 -8 12 -6 6 2 21 4 34 4 20 -1 21 0 7 11 -16 11 -15 13 1 27 16
13 17 12 10 -6 -6 -16 -5 -18 5 -7 20 19 -2 33 -26 16z"/>
<path d="M11848 903 c7 -3 16 -2 19 1 4 3 -2 6 -13 5 -11 0 -14 -3 -6 -6z"/>
<path d="M11896 902 c-2 -4 4 -9 15 -9 11 -1 17 2 14 8 -7 11 -22 12 -29 1z"/>
<path d="M11890 855 c0 -10 -10 -15 -29 -15 -17 0 -32 -4 -35 -9 -7 -11 -56
-11 -56 1 0 5 -5 6 -10 3 -6 -4 -7 -11 -4 -17 8 -13 182 -4 196 10 5 5 6 16 2
25 -8 22 -64 23 -64 2z"/>
<path d="M11707 783 c-13 -12 -7 -22 12 -20 11 0 17 6 14 14 -6 14 -16 17 -26
6z"/>
<path d="M11590 515 c-19 -23 -8 -25 14 -4 11 11 15 19 9 19 -6 0 -16 -7 -23
-15z"/>
<path d="M11520 490 c0 -5 5 -10 11 -10 5 0 7 5 4 10 -3 6 -8 10 -11 10 -2 0
-4 -4 -4 -10z"/>
</g>
</svg>
